<?xml version="1.0" standalone="no"?><!DOCTYPE svg PUBLIC "-//W3C//DTD SVG 1.1//EN" "http://www.w3.org/Graphics/SVG/1.1/DTD/svg11.dtd"><svg t="1485248766108" class="icon" style="" viewBox="0 0 1024 1024" version="1.1" xmlns="http://www.w3.org/2000/svg" p-id="655" xmlns:xlink="http://www.w3.org/1999/xlink" width="200" height="200"><defs><style type="text/css"></style></defs><path d="M451.406458 730.141252l121.18606 0L572.592518 584.718185l121.187083 0 0-72.712045L572.592518 512.00614l121.187083-218.135112-96.949053 0-72.711022 145.422044-96.950076-145.422044-96.949053 0 121.18606 218.135112L330.220399 512.00614l0 72.712045 121.18606 0L451.406458 730.141252z" p-id="656" fill="#d81e06"></path><path d="M827.083653 305.978786l0 480.151641c0 29.302373-23.50432 53.066613-52.522214 53.066613L249.437537 839.19704c-29.018917 0-52.522214-23.765263-52.522214-53.066613L196.915323 237.858316c0-29.302373 23.503297-53.066613 52.522214-53.066613l347.035878 0L596.473415 63.605643 148.441309 63.605643c-40.165792 0-72.712045 32.54523-72.712045 72.711022l0 751.35439c0 40.177048 32.54523 72.722278 72.712045 72.722278l727.116359 0c40.165792 0 72.711022-32.546254 72.711022-72.722278L948.26869 305.978786 827.083653 305.978786z" p-id="657" fill="#d81e06"></path></svg>