<?xml version="1.0" standalone="no"?><!DOCTYPE svg PUBLIC "-//W3C//DTD SVG 1.1//EN" "http://www.w3.org/Graphics/SVG/1.1/DTD/svg11.dtd"><svg t="1485248804889" class="icon" style="" viewBox="0 0 1024 1024" version="1.1" xmlns="http://www.w3.org/2000/svg" p-id="1519" xmlns:xlink="http://www.w3.org/1999/xlink" width="200" height="200"><defs><style type="text/css"></style></defs><path d="M436.114171 566.180993c-11.948123 0-21.626553 9.355065-21.626553 20.928658 0 11.524474 9.67843 20.903076 21.626553 20.903076L551.381427 608.012727l0 126.467343c0 11.549034 9.67843 20.904099 21.627577 20.904099 11.922541 0 21.600971-9.355065 21.600971-20.904099L594.609974 608.012727l115.26828 0c11.948123 0 21.626553-9.378601 21.626553-20.903076 0-11.574616-9.67843-20.928658-21.626553-20.928658L594.609974 566.180993l0-71.365374 115.26828 0c11.948123 0 21.626553-9.354042 21.626553-20.903076 0-11.524474-9.67843-20.903076-21.626553-20.903076l-84.71031 0 94.637404-91.544973c8.456602-8.182356 8.456602-21.402449 0-29.559223-8.455579-8.156774-22.124903-8.156774-30.555923 0L573.009004 444.35332 456.743 331.904249c-8.456602-8.156774-22.125927-8.156774-30.556946 0-8.43102 8.156774-8.43102 21.376866 0 29.559223l94.638427 91.544973-84.711334 0c-11.948123 0-21.626553 9.379625-21.626553 20.903076 0 11.549034 9.67843 20.903076 21.626553 20.903076L551.381427 494.814596l0 71.365374L436.114171 566.17997zM927.517063 363.009687c-19.930935-45.598524-48.491411-86.606497-84.860736-121.777531-36.368302-35.172057-78.723969-62.809511-125.893268-82.09167-48.841382-19.993357-100.69947-30.119995-154.180522-30.119995-53.455469 0-105.315604 10.126638-154.180522 30.119995-47.169299 19.282159-89.524966 46.920636-125.893268 82.09167-36.369326 35.171034-64.905242 76.18003-84.860736 121.777531-16.014742 36.617989-25.892717 74.982762-29.559223 114.494661l-62.410422-60.489676c-9.366322-9.079796-24.570605-9.104355-33.949206-0.024559-9.391904 9.079796-9.404184 23.771403-0.037862 32.852222L177.342546 552.188304c3.218298 3.142573 7.134491 5.188162 11.274788 6.161327 1.870604 0.424672 3.791349 0.673335 5.712095 0.673335 0.773619 0 1.521656-0.050142 2.295276-0.100284 5.363148-0.49835 10.57587-2.743484 14.667048-6.684236l105.813954-102.222149c9.404184-9.029654 9.404184-23.746844 0.024559-32.82664-9.379625-9.079796-24.569582-9.079796-33.949206-0.050142l-67.275219 65.004503c15.739473-171.666778 165.231205-306.665425 346.675674-306.665425 191.922101 0 348.07351 151.013389 348.07351 336.698438 0 185.634908-156.151409 336.673879-348.07351 336.673879-53.03182 0-103.94335-11.250228-151.312194-33.401738-11.923564-5.587252-26.290783-0.747014-32.078603 10.82658-5.762237 11.524474-0.748037 25.417903 11.174504 31.005155 53.930283 25.219381 111.87602 38.040385 172.21527 38.040385 53.481052 0 105.33914-10.152221 154.180522-30.132274 47.170323-19.306718 89.524966-46.920636 125.893268-82.116229 36.369326-35.171034 64.929802-76.129888 84.860736-121.778554 20.678972-47.244001 31.155581-97.432053 31.155581-149.117203C958.672644 460.442764 948.196035 410.254711 927.517063 363.009687z" p-id="1520" fill="#d81e06"></path></svg>