<?xml version="1.0" standalone="no"?><!DOCTYPE svg PUBLIC "-//W3C//DTD SVG 1.1//EN" "http://www.w3.org/Graphics/SVG/1.1/DTD/svg11.dtd"><svg t="1485248820975" class="icon" style="" viewBox="0 0 1024 1024" version="1.1" xmlns="http://www.w3.org/2000/svg" p-id="2029" xmlns:xlink="http://www.w3.org/1999/xlink" width="200" height="200"><defs><style type="text/css"></style></defs><path d="M321.163636 158.254545l702.836364 0 0 470.109091-702.836364 0 0-470.109091Z" p-id="2030" fill="#d81e06"></path><path d="M195.490909 670.254545c-55.854545 0-97.745455 41.890909-97.745455 97.745455 0 55.854545 41.890909 97.745455 97.745455 97.745455 55.854545 0 97.745455-41.890909 97.745455-97.745455C293.236364 712.145455 251.345455 670.254545 195.490909 670.254545zM195.490909 814.545455c-23.272727 0-46.545455-18.618182-46.545455-46.545455 0-23.272727 18.618182-46.545455 46.545455-46.545455 23.272727 0 46.545455 18.618182 46.545455 46.545455C242.036364 791.272727 223.418182 814.545455 195.490909 814.545455z" p-id="2031" fill="#d81e06"></path><path d="M321.163636 670.254545l0 88.436364L791.272727 758.690909c0-32.581818 18.618182-65.163636 41.890909-88.436364L321.163636 670.254545z" p-id="2032" fill="#d81e06"></path><path d="M926.254545 670.254545c-55.854545 0-97.745455 41.890909-97.745455 97.745455 0 55.854545 41.890909 97.745455 97.745455 97.745455 55.854545 0 97.745455-41.890909 97.745455-97.745455C1024 712.145455 982.109091 670.254545 926.254545 670.254545zM926.254545 814.545455c-23.272727 0-46.545455-18.618182-46.545455-46.545455 0-23.272727 18.618182-46.545455 46.545455-46.545455 23.272727 0 46.545455 18.618182 46.545455 46.545455C972.8 791.272727 949.527273 814.545455 926.254545 814.545455z" p-id="2033" fill="#d81e06"></path><path d="M195.490909 628.363636c27.927273 0 55.854545 9.309091 74.472727 23.272727L269.963636 311.854545 79.127273 311.854545 0 525.963636l0 228.072727 60.509091 0C65.163636 684.218182 125.672727 628.363636 195.490909 628.363636zM102.4 349.090909 232.727273 349.090909l0 167.563636L41.890909 516.654545 102.4 349.090909z" p-id="2034" fill="#d81e06"></path></svg>