<?xml version="1.0" standalone="no"?><!DOCTYPE svg PUBLIC "-//W3C//DTD SVG 1.1//EN" "http://www.w3.org/Graphics/SVG/1.1/DTD/svg11.dtd"><svg t="1485248810462" class="icon" style="" viewBox="0 0 1024 1024" version="1.1" xmlns="http://www.w3.org/2000/svg" p-id="1687" xmlns:xlink="http://www.w3.org/1999/xlink" width="200" height="200"><defs><style type="text/css"></style></defs><path d="M757.020436 899.833049c-61.995983 0-112.384603-50.387597-112.384603-112.384603 0-4.372587 0.207731-8.745175 0.728594-13.013385L451.046766 774.435061c-2.550079 1.301645-5.362124 1.978051-8.380878 1.978051l-61.476143 0c-0.207731 0-0.416486 0-0.572028 0-6.402827 56.010665-54.032614 99.631138-111.708198 99.631138S163.55196 832.422753 157.149133 776.412089l-61.47512 0c-10.30674 0-18.635429-8.328689-18.635429-18.635429L77.038584 468.045929c0-3.435239 0.937348-6.819313 2.706645-9.734712l99.68435-162.825412c23.528879-37.270858 58.299801-56.010665 103.430674-56.010665L424.447968 239.47514c3.175319-68.450998 59.810201-123.160018 129.041982-123.160018l276.301883 0c71.209832 0 129.145335 57.936527 129.145335 129.145335l0 427.415556c0 52.210106-39.561018 95.362928-90.312912 100.984972 0.520863 4.424776 0.780783 9.005095 0.780783 13.586436C869.405039 849.444429 819.016419 899.833049 757.020436 899.833049zM757.020436 712.334701c-41.382503 0-75.114768 33.731242-75.114768 75.114768 0 41.382503 33.731242 75.114768 75.114768 75.114768 41.382503 0 75.114768-33.731242 75.114768-75.114768C832.133158 746.065943 798.402939 712.334701 757.020436 712.334701zM268.909519 688.493713c-41.434691 0-75.165933 33.731242-75.165933 75.165933 0 41.382503 33.731242 75.114768 75.165933 75.114768 41.382503 0 75.114768-33.731242 75.114768-75.114768C344.024288 722.224955 310.292022 688.493713 268.909519 688.493713zM268.909519 651.223878c53.616128 0 98.590436 37.739533 109.730147 88.075964 0.832971-0.104377 1.664919-0.155543 2.550079-0.155543l42.840714 0 0.260943-462.395232-141.43115 0c-32.377408 0-55.17667 12.232602-71.730695 38.415938l-96.821139 158.139693 0 265.839601 44.818765 0C170.371272 688.85801 215.34558 651.223878 268.909519 651.223878zM461.613426 737.164203l194.890712 0c18.479887-36.802184 56.582693-62.10036 100.516298-62.10036 43.933605 0 82.037435 25.298176 100.516298 62.10036 35.344996-0.052189 64.130599-28.889981 64.130599-64.287165L921.667334 245.461481c0-50.64854-41.22696-91.8755-91.8755-91.8755l-276.302907 0c-50.64854 0-91.8755 41.22696-91.8755 91.8755L461.613426 737.164203 461.613426 737.164203zM309.823348 490.896356 190.881398 490.896356c-10.30674 0-18.635429-8.328689-18.635429-18.635429s8.328689-18.635429 18.635429-18.635429l100.308567 0 0-100.308567c0-10.30674 8.328689-18.635429 18.635429-18.635429s18.635429 8.328689 18.635429 18.635429l0 118.943996C328.458777 482.567667 320.130088 490.896356 309.823348 490.896356z" p-id="1688" fill="#d81e06"></path></svg>