<?xml version="1.0" standalone="no"?><!DOCTYPE svg PUBLIC "-//W3C//DTD SVG 1.1//EN" "http://www.w3.org/Graphics/SVG/1.1/DTD/svg11.dtd"><svg t="1485248794976" class="icon" style="" viewBox="0 0 1024 1024" version="1.1" xmlns="http://www.w3.org/2000/svg" p-id="1349" xmlns:xlink="http://www.w3.org/1999/xlink" width="200" height="200"><defs><style type="text/css"></style></defs><path d="M347.432409 375.379413c-147.885142 139.686413-170.319084 233.793744-156.859537 389.010875 27.647687 132.463917 117.806079 169.290661 145.878438 181.802626l77.80504 12.30628 5.103228 0 0 0 5.1503 0 0 0 5.1503 0 5.117554 0 5.180999 0 5.1503 0 5.119601 0 0 0 5.1503 0 0 0 5.101181 0 5.166673 0 5.101181 0 5.1503 0 5.1503 0 0 0 5.102205 0 5.16565 0 5.134951 0 5.119601 0 5.118578 0 5.149277 0 0.032746 0 5.117554 0 5.117554 0 5.134951 0 5.166673 0 5.103228 0 0 0 5.148253 0 0 0 5.119601 0 5.132904 0 5.16872 0 5.116531 0 5.135974 0 0 0 10.284227 0-5.148253 0 5.148253 0 56.968479 0c134.644583-19.777439 179.528839-122.101919 196.006116-224.791719 2.51017-197.504236-57.630558-263.33557-186.195679-358.328062C546.170752 375.379413 446.833303 375.379413 347.432409 375.379413L347.432409 375.379413zM318.125943 349.994256c-20.379143 0-36.936237-16.540721-36.936237-36.970006 0-20.361747 16.557094-36.933167 36.936237-36.933167l359.972515 0c20.409842 0 36.96796 16.557094 36.96796 36.933167 0 20.413935-16.558118 36.970006-36.96796 36.970006L318.125943 349.994256 318.125943 349.994256zM537.545304 829.555449l0 22.196535-67.819618 0 0-23.191188c-33.555234-8.43716-50.364061-27.724435-50.364061-57.678654l0-77.363995 67.835991 0 0 77.915557c0 7.726985 4.471848 11.612479 13.524015 11.612479 8.735965 0 13.080923-3.885494 13.080923-11.612479l0-40.22105c0-8.53335-3.12927-17.10968-9.495258-25.626657-6.319939-8.67252-26.507724-29.745465-60.569494-63.298652-16.22452-18.421558-24.359804-35.405371-24.359804-51.012837l0-38.09155c0-34.643008 16.807804-55.544037 50.362015-62.637596l0-23.175839 67.806315 0 0 23.175839c29.385261 7.328919 44.059472 26.240641 44.059472 56.571437l0 58.595536-67.786873 0 0-62.371536c0-6.757914-3.539616-10.171664-10.726296-10.171664-8.31027 0-12.497639 6.621814-12.497639 19.794835l1.358951 22.0062c0 12.464893 8.31027 27.219945 24.945135 44.394093 33.584909 33.414017 53.854559 55.56041 60.948117 66.222237 7.062859 10.714016 10.585079 22.75219 10.585079 35.989679l0 43.191708C588.399529 801.072745 571.449485 822.60413 537.545304 829.555449z" p-id="1350" fill="#d81e06"></path><path d="M400.892995 253.800403c-28.516474-33.650401-131.517359-136.717801-61.343113-149.244093 47.140647-8.43716 39.573297 65.417919 77.426417 46.555315 18.735713-9.350972-1.453095-54.154387 0.552585-61.72276 0.773619-2.859118-2.00568-12.936637 15.908318-21.325701 26.38288-12.341073 48.973388 22.652929 47.505967 46.587038-1.453095 23.918759 27.5341 40.188304 42.337247 13.520945 14.787798-26.697035 1.454118-67.62826 44.836161-61.593823 43.379996 6.033413 24.170492 49.874921 21.122063 66.019623-2.355651 12.480242 10.504238 37.962613 35.356252 11.799744 14.657838-15.46318 43.220361-45.466518 61.373813-38.150902 65.925479 26.477025-75.389014 147.570987-65.433268 147.570987C636.233977 253.800403 400.892995 253.800403 400.892995 253.800403z" p-id="1351" fill="#d81e06"></path><path d="M624.718713 153.923672c0 0 37.804001-48.628534 61.374836-38.169321" p-id="1352" fill="#d81e06"></path></svg>